<svg width="71" height="74" viewBox="0 0 71 74" fill="none" xmlns="http://www.w3.org/2000/svg">
<path d="M45.0521 51.7824L57.6082 59.1882C59.1337 60.0699 61.1286 59.5409 62.0087 58.0127L66.5852 50.2542C66.9959 49.5488 67.1133 48.6672 66.8786 47.8443C66.7025 46.9627 66.1745 46.2573 65.4117 45.8459L52.8556 38.44C52.3862 38.2049 52.0929 37.6759 52.0929 37.1469C52.0929 36.5592 52.3862 36.089 52.8556 35.7951L65.5291 28.5655C66.2918 28.1541 66.8199 27.4488 67.0546 26.6259C67.2893 25.803 67.1719 24.9214 66.7612 24.1573L62.302 16.34C61.4219 14.8118 59.4857 14.2828 57.9015 15.1644L45.2281 22.3352C44.7587 22.6291 44.172 22.6291 43.7026 22.3352C43.2332 22.0413 42.9398 21.5711 42.9398 20.9833L43.0572 6.40667C43.0572 4.64337 41.649 3.17395 39.8301 3.17395L30.8531 3.11517C29.0929 3.05639 27.6261 4.52581 27.6261 6.28912L27.5087 20.8658C27.5087 21.4535 27.2154 21.9237 26.746 22.2176C26.2766 22.5115 25.6899 22.5115 25.2205 22.2176L12.6644 14.8118C11.9016 14.4003 11.0215 14.2828 10.2001 14.5179C9.37866 14.6942 8.67458 15.2232 8.2052 15.9873L3.68735 23.7458C3.27663 24.4512 3.15929 25.3328 3.33531 26.1557C3.57 27.0373 4.09806 27.7427 4.86081 28.1541L17.4169 35.56C17.8863 35.7951 18.1797 36.3241 18.1797 36.8531C18.1797 37.4408 17.8863 37.911 17.3582 38.2049L4.74347 45.4345C3.15929 46.3161 2.63123 48.2558 3.51133 49.8427L7.91183 57.66C8.38122 58.3654 9.0853 58.8944 9.90672 59.1295C10.7282 59.3646 11.6083 59.247 12.3123 58.8356L24.9858 51.6648C25.4552 51.3709 26.0419 51.3709 26.57 51.6648C27.0393 51.9587 27.3327 52.4289 27.274 53.0167L27.2154 67.5933C27.1567 69.3566 28.6235 70.826 30.3837 70.826L39.3608 70.8848C41.1796 70.8848 42.5878 69.4742 42.6465 67.7109L42.7051 53.0755C42.7051 52.5465 42.9985 52.0175 43.5266 51.7824C43.7613 51.6648 43.996 51.5473 44.2893 51.5473C44.524 51.5473 44.8174 51.6648 45.0521 51.7824ZM24.1057 67.5346L24.223 55.6616L13.8378 61.5393C12.371 62.3622 10.6695 62.5973 9.0853 62.1271C7.44244 61.6569 6.09296 60.5989 5.27153 59.1295L0.812352 51.3709C-0.889175 48.3145 0.166945 44.4353 3.21796 42.7307L13.5445 36.8531L3.27663 30.799C1.8098 29.9762 0.812352 28.5655 0.401639 26.9786C-0.0677482 25.3328 0.166945 23.6283 1.04705 22.1589L5.5649 14.4003C6.445 12.9897 7.79448 11.9317 9.43734 11.5203C11.0802 11.05 12.7817 11.2851 14.1899 12.1668L24.4577 18.2208L24.5751 6.28912C24.5751 2.82129 27.4501 0 30.9118 0L39.8888 0.0587768C43.3505 0.117554 46.1669 2.93884 46.1082 6.40667L46.0495 18.3384L56.376 12.4607C59.427 10.7562 63.2995 11.8141 65.001 14.8118L69.4015 22.6291C70.2229 24.0985 70.4576 25.803 69.9883 27.4488C69.5775 29.0945 68.5214 30.4464 67.0546 31.2693L56.7281 37.1469L66.9372 43.201C69.9883 44.9643 70.9857 48.8435 69.2255 51.8411L64.649 59.5997C62.8888 62.5973 59.0163 63.5965 56.024 61.8332L45.7562 55.7792L45.6975 67.7109C45.6975 71.1787 42.8225 74 39.3608 74L30.3837 73.9412C26.922 73.8824 24.1057 71.0612 24.1057 67.5346Z" fill="#BC1E2E"/>
<path d="M30.7936 24.98C30.735 27.3311 32.7885 29.2707 35.2528 29.0944C37.3651 28.9181 38.9492 26.9784 39.0079 24.8037L39.0666 10.0507C39.1253 7.93474 37.5411 5.93633 35.4288 5.70123C32.9645 5.46612 30.911 7.40575 30.911 9.8156L30.7936 24.98ZM31.8498 46.1984L31.7324 64.6544C31.6737 66.4177 33.3166 67.8283 35.1355 67.5344C36.5436 67.2405 37.4824 65.9475 37.4824 64.5368L37.5997 46.3748C37.5997 44.9641 36.7196 43.6123 35.3115 43.3772C33.4926 43.0245 31.8498 44.3764 31.8498 46.1984ZM9.43653 52.5463C10.434 53.428 11.9595 53.4868 13.1329 52.8402L29.2095 43.671C30.9697 42.6718 31.3217 40.2032 29.7375 38.7338C28.7401 37.7934 27.2146 37.7346 26.0998 38.4399L9.96459 47.5503C8.26306 48.5495 7.85235 51.0181 9.43653 52.5463ZM28.9748 32.6798C29.5028 31.1516 28.7401 29.5058 27.3906 28.683L12.8983 20.1603C11.1381 19.1023 8.73245 19.9252 8.02837 21.9824C7.50031 23.5106 8.26306 25.2151 9.67122 26.038L24.1049 34.5019C25.8651 35.5598 28.2707 34.737 28.9748 32.6798ZM61.4798 22.3938C61.0691 21.6885 60.189 21.3946 59.4262 21.8061L41.8829 31.7981C41.1788 32.2096 40.9441 33.15 41.2962 33.8553C41.7069 34.5606 42.6457 34.8545 43.3497 34.4431L60.9518 24.451C61.6558 24.0396 61.8905 23.0992 61.4798 22.3938ZM40.4161 41.32C40.2987 42.3192 40.8268 43.2596 41.7069 43.7886L57.4313 53.0166C58.8395 53.8394 60.7757 53.0753 61.0104 51.2533C61.1864 50.254 60.5997 49.3136 59.7783 48.7846L44.0538 39.5567C42.6457 38.7338 40.7094 39.4979 40.4161 41.32Z" fill="#BC1E2E"/>
</svg>
