<?xml version="1.0" standalone="no"?>
<!DOCTYPE svg PUBLIC "-//W3C//DTD SVG 20010904//EN"
 "http://www.w3.org/TR/2001/REC-SVG-20010904/DTD/svg10.dtd">
<svg version="1.0" xmlns="http://www.w3.org/2000/svg"
 width="592.000000pt" height="592.000000pt" viewBox="0 0 592.000000 592.000000"
 preserveAspectRatio="xMidYMid meet">
<metadata>
Created by potrace 1.14, written by Peter Selinger 2001-2017
</metadata>
<g transform="translate(0.000000,592.000000) scale(0.100000,-0.100000)"
fill="#000000" stroke="none">
<path d="M2470 5906 c-141 -39 -274 -147 -330 -269 -17 -35 -33 -74 -35 -86
-3 -11 -8 -31 -11 -43 -3 -13 -7 -157 -9 -321 -2 -165 -6 -301 -8 -304 -3 -2
-2 -17 2 -31 4 -15 4 -40 1 -57 -4 -16 -3 -40 1 -51 4 -12 5 -25 2 -28 -3 -3
-6 -60 -6 -126 -1 -118 -6 -137 -33 -110 -6 6 -26 18 -45 28 -19 10 -205 119
-414 243 -350 206 -413 241 -470 255 -45 12 -173 11 -215 -2 -25 -8 -47 -14
-50 -15 -3 -1 -12 -4 -20 -6 -107 -31 -212 -126 -296 -268 -83 -140 -91 -154
-119 -205 -14 -25 -30 -52 -35 -60 -58 -88 -206 -358 -222 -405 -39 -117 -27
-262 33 -384 42 -85 133 -174 234 -231 44 -24 82 -47 85 -50 3 -3 16 -11 29
-18 35 -20 86 -49 124 -71 17 -10 74 -44 125 -75 51 -31 94 -56 95 -56 2 0 74
-42 161 -94 l158 -94 -68 -40 c-38 -21 -105 -60 -149 -84 -44 -25 -96 -55
-115 -65 -54 -31 -321 -184 -355 -203 -16 -10 -63 -36 -103 -59 -118 -68 -187
-135 -233 -226 -45 -92 -59 -157 -55 -260 5 -102 22 -157 85 -266 23 -39 41
-75 41 -80 0 -5 5 -9 10 -9 6 0 10 -4 10 -9 0 -12 93 -175 102 -179 4 -2 8 -8
8 -13 0 -5 35 -69 77 -142 42 -72 82 -143 89 -156 45 -85 160 -180 269 -221
67 -25 214 -35 268 -19 18 6 42 12 54 15 13 2 44 16 70 31 56 30 265 149 378
213 56 32 107 60 150 83 22 12 42 24 45 27 3 3 19 12 35 21 75 41 151 83 195
109 l47 27 -4 -511 c-3 -556 -3 -559 53 -675 51 -104 207 -234 307 -256 12 -2
38 -8 57 -13 19 -4 231 -8 470 -8 l435 1 70 28 c157 62 280 198 315 347 12 51
18 336 20 923 l0 158 28 -19 c15 -10 48 -31 73 -44 77 -43 94 -53 99 -58 3 -3
16 -11 29 -18 13 -8 38 -22 55 -31 17 -10 77 -46 134 -80 56 -33 107 -61 112
-61 6 0 10 -4 10 -10 0 -5 4 -10 9 -10 5 0 78 -41 161 -91 84 -50 180 -99 214
-110 127 -41 277 -27 396 39 69 37 160 123 186 175 9 17 23 37 30 45 8 7 14
17 14 22 0 5 26 53 59 107 277 463 315 535 329 616 7 46 7 170 -1 202 -23 94
-96 218 -161 273 -22 19 -144 95 -246 154 -16 10 -90 53 -162 96 -73 44 -213
127 -311 185 l-178 105 78 45 c43 25 179 103 303 173 124 70 239 135 255 144
17 10 46 26 65 36 19 11 37 21 40 24 3 3 25 16 50 30 151 82 234 186 274 341
19 75 13 203 -12 277 -17 48 -106 218 -142 272 -6 8 -13 22 -17 30 -4 8 -34
62 -66 120 -67 117 -77 135 -132 235 -22 39 -43 72 -47 73 -4 2 -8 9 -8 16 0
7 -26 39 -59 72 -104 106 -257 163 -403 150 -68 -7 -173 -39 -218 -67 -70 -45
-240 -139 -249 -139 -6 0 -11 -4 -11 -9 0 -5 -8 -11 -17 -14 -10 -3 -41 -19
-68 -35 -230 -133 -318 -182 -325 -182 -5 0 -10 -4 -12 -8 -2 -7 -121 -72
-130 -72 -2 0 -3 235 -3 523 0 589 1 578 -78 700 -44 69 -79 103 -153 152 -43
29 -162 76 -182 74 -4 -1 -9 0 -12 1 -3 1 -198 4 -435 5 -320 2 -441 0 -475
-9z m940 -263 c65 -30 116 -85 138 -152 16 -50 18 -85 15 -326 -11 -1042 -14
-981 48 -1026 56 -39 76 -34 239 58 88 50 196 110 238 134 86 48 517 292 547
310 17 10 65 36 107 57 69 36 83 39 145 38 105 -3 185 -55 229 -146 11 -22 22
-40 27 -40 4 0 7 -4 7 -9 0 -5 52 -99 115 -210 63 -111 115 -206 115 -211 0
-6 4 -10 8 -10 4 0 30 -42 56 -94 41 -82 48 -102 47 -155 0 -101 -49 -181
-141 -233 -25 -14 -61 -35 -80 -46 -19 -11 -83 -47 -142 -81 -59 -33 -122 -70
-140 -81 -18 -11 -40 -23 -48 -27 -8 -4 -48 -26 -88 -50 -41 -24 -75 -43 -77
-43 -3 0 -45 -25 -95 -55 -49 -30 -90 -51 -90 -47 0 4 -4 2 -8 -3 -4 -6 -63
-42 -131 -80 -83 -47 -130 -80 -142 -100 -26 -42 -24 -103 4 -136 12 -15 110
-78 217 -142 107 -63 329 -194 493 -291 165 -97 303 -176 308 -176 5 0 9 -3 9
-7 0 -5 19 -19 41 -33 59 -36 94 -113 93 -205 -1 -69 -11 -101 -53 -170 -10
-16 -66 -111 -124 -210 -58 -99 -111 -185 -116 -192 -6 -7 -11 -15 -11 -19 0
-3 -23 -45 -52 -93 -59 -98 -102 -143 -156 -167 -45 -20 -145 -26 -181 -11
-41 17 -276 151 -279 159 -2 5 -7 8 -12 8 -5 0 -75 40 -157 88 -81 49 -231
137 -333 197 -102 59 -193 115 -202 123 -10 8 -18 12 -18 9 0 -4 -16 5 -36 18
-20 14 -42 25 -48 26 -6 0 -18 2 -27 4 -27 5 -96 -31 -115 -60 -15 -24 -17
-80 -20 -647 -2 -441 -7 -631 -15 -657 -16 -48 -56 -104 -96 -131 -73 -50 -88
-51 -512 -48 -456 3 -461 3 -546 83 -21 20 -53 81 -60 115 -4 19 -7 118 -7
220 0 102 1 380 2 618 2 383 0 435 -14 457 -41 63 -114 75 -184 31 -23 -14
-44 -26 -46 -26 -3 0 -27 -13 -54 -29 -27 -16 -74 -43 -103 -59 -85 -47 -316
-178 -534 -302 -305 -174 -308 -175 -390 -175 -58 0 -78 5 -115 27 -60 35
-100 80 -143 158 -19 36 -69 125 -111 198 -42 73 -76 134 -76 136 0 1 -32 59
-71 127 -39 68 -77 147 -83 174 -19 81 4 169 59 229 24 26 324 206 343 206 6
0 12 4 14 8 2 4 89 56 193 116 219 125 232 133 340 194 44 25 91 52 105 61 14
8 27 16 30 16 18 3 81 50 95 71 19 29 22 92 6 122 -10 18 -91 82 -104 82 -3 0
-35 18 -71 40 -36 22 -70 40 -76 40 -5 0 -10 3 -10 8 0 4 -21 18 -48 31 -26
14 -61 35 -79 48 -17 13 -34 23 -36 23 -3 0 -90 50 -193 112 -104 61 -202 118
-217 127 -16 9 -36 21 -45 26 -9 6 -60 36 -112 67 -148 87 -183 137 -184 253
-1 58 4 80 28 130 16 33 32 62 35 65 3 3 11 14 17 25 45 85 60 111 67 120 4 5
64 107 133 225 69 118 137 228 152 243 54 57 167 85 259 66 20 -5 280 -152
359 -204 38 -24 97 -58 104 -60 3 0 17 -8 33 -18 15 -9 39 -25 55 -34 15 -10
29 -18 32 -18 3 0 24 -13 46 -27 34 -22 202 -121 289 -171 11 -6 32 -19 48
-29 71 -48 139 -76 169 -71 44 7 86 41 98 79 8 22 13 242 16 641 5 681 3 669
77 745 77 79 68 78 542 75 401 -3 422 -4 465 -24z"/>
<path d="M2822 5448 c-93 -32 -156 -88 -199 -178 -32 -66 -31 -49 -35 -855
l-3 -570 27 -58 c41 -88 132 -165 217 -185 32 -7 126 -7 162 1 73 15 163 88
201 160 12 23 23 44 23 47 1 3 7 24 14 48 6 23 9 47 6 52 -3 6 -3 10 2 10 4 0
8 287 7 638 -1 690 0 675 -56 755 -90 130 -227 181 -366 135z"/>
<path d="M973 4339 c-92 -17 -161 -71 -201 -158 -43 -94 -19 -213 61 -294 27
-28 110 -82 242 -157 49 -28 139 -80 155 -90 8 -6 85 -50 170 -100 85 -50 162
-94 170 -99 49 -30 499 -291 520 -302 40 -20 148 -16 201 8 134 60 194 213
136 345 -14 30 -37 67 -53 82 -27 26 -103 79 -114 81 -3 0 -23 12 -45 26 -32
20 -266 159 -335 199 -8 5 -49 29 -90 53 -315 186 -660 385 -685 394 -46 17
-86 21 -132 12z"/>
<path d="M4879 4178 c-8 -4 -37 -21 -65 -36 -27 -16 -70 -40 -95 -54 -144 -82
-1107 -630 -1119 -638 -8 -5 -46 -27 -85 -49 -77 -43 -92 -61 -101 -120 -12
-73 56 -140 130 -128 31 5 191 90 363 194 40 23 75 43 77 43 2 0 44 23 93 51
142 82 663 378 723 411 120 65 216 127 233 149 39 54 17 143 -45 175 -29 15
-84 16 -109 2z"/>
<path d="M2279 2873 c-30 -8 -55 -18 -57 -23 -2 -6 -8 -10 -14 -10 -6 0 -47
-21 -92 -46 -44 -26 -99 -57 -121 -69 -22 -13 -87 -49 -145 -82 -58 -33 -161
-91 -230 -130 -69 -39 -149 -84 -178 -102 -29 -17 -55 -31 -57 -31 -2 0 -26
-13 -53 -29 -51 -30 -58 -34 -277 -156 -143 -80 -205 -128 -232 -179 -28 -54
-35 -124 -16 -181 23 -71 25 -75 34 -75 5 0 9 -6 9 -14 0 -21 79 -71 129 -82
31 -7 98 -6 126 2 32 10 157 74 172 90 8 8 18 14 23 14 4 0 111 59 236 131
126 72 249 142 274 156 25 14 90 51 145 83 55 32 118 68 140 80 22 12 70 40
107 61 36 22 71 39 76 39 6 0 12 4 14 8 2 5 37 27 78 50 117 63 155 95 182
150 19 39 24 63 23 108 -1 33 -4 66 -7 76 -10 40 -66 112 -105 134 -66 40
-110 46 -184 27z"/>
<path d="M3465 2763 c-124 -64 -149 -223 -49 -314 24 -22 207 -134 354 -216
19 -11 98 -58 175 -103 176 -104 216 -128 235 -137 8 -5 53 -30 99 -58 45 -27
99 -59 120 -71 20 -11 99 -58 176 -103 171 -101 190 -109 247 -106 163 8 238
199 125 319 -36 38 -274 185 -547 338 -19 11 -72 42 -116 69 -45 27 -86 49
-92 49 -6 0 -12 3 -14 8 -3 7 -125 82 -134 82 -2 0 -27 15 -57 33 -76 46 -78
48 -232 138 -128 75 -145 82 -200 85 -40 2 -70 -3 -90 -13z"/>
<path d="M2860 2450 c-64 -12 -160 -78 -160 -110 0 -6 -7 -22 -16 -36 -15 -21
-17 -84 -19 -547 -2 -287 -4 -643 -5 -790 l-2 -268 26 -54 c88 -178 335 -170
414 15 8 19 16 64 18 100 2 36 6 70 8 77 3 6 2 14 -2 17 -3 4 -5 43 -3 89 1
45 4 359 5 697 4 579 3 618 -15 664 -40 106 -142 166 -249 146z"/>
</g>
</svg>
