<svg width="35" height="29" viewBox="0 0 35 29" fill="none" xmlns="http://www.w3.org/2000/svg">
<path d="M26.1405 0H8.16871C7.51519 0 6.94336 0.571831 6.94336 1.22535C6.94336 1.87887 7.51519 2.4507 8.16871 2.4507H8.57716V28.5915C8.57716 28.8366 8.74054 29 8.98561 29H25.3236C25.5687 29 25.7321 28.8366 25.7321 28.5915V2.4507H26.1405C26.7941 2.4507 27.3659 1.87887 27.3659 1.22535C27.3659 0.571831 26.7941 0 26.1405 0ZM15.9293 25.3239C15.9293 25.569 15.7659 25.7324 15.5208 25.7324H11.4363C11.1912 25.7324 11.0279 25.569 11.0279 25.3239V22.8732C11.0279 22.6282 11.1912 22.4648 11.4363 22.4648H15.5208C15.7659 22.4648 15.9293 22.6282 15.9293 22.8732V25.3239ZM15.9293 18.7887C15.9293 19.0338 15.7659 19.1972 15.5208 19.1972H11.4363C11.1912 19.1972 11.0279 19.0338 11.0279 18.7887V16.338C11.0279 16.093 11.1912 15.9296 11.4363 15.9296H15.5208C15.7659 15.9296 15.9293 16.093 15.9293 16.338V18.7887ZM12.2532 7.76056C12.2532 5.06479 14.4589 2.85915 17.1546 2.85915C19.8504 2.85915 22.056 5.06479 22.056 7.76056C22.056 10.4563 19.8504 12.662 17.1546 12.662C14.4589 12.662 12.2532 10.4563 12.2532 7.76056ZM23.2814 25.3239C23.2814 25.569 23.118 25.7324 22.8729 25.7324H18.7884C18.5434 25.7324 18.38 25.569 18.38 25.3239V22.8732C18.38 22.6282 18.5434 22.4648 18.7884 22.4648H22.8729C23.118 22.4648 23.2814 22.6282 23.2814 22.8732V25.3239ZM23.2814 18.7887C23.2814 19.0338 23.118 19.1972 22.8729 19.1972H18.7884C18.5434 19.1972 18.38 19.0338 18.38 18.7887V16.338C18.38 16.093 18.5434 15.9296 18.7884 15.9296H22.8729C23.118 15.9296 23.2814 16.093 23.2814 16.338V18.7887Z" fill="#163E7A"/>
<path d="M0 6.12672C0 6.78024 0.571831 7.35207 1.22535 7.35207H6.53521V4.90137H1.22535C0.571831 4.90137 0 5.4732 0 6.12672ZM19.769 6.69855H18.2169V5.14644C18.2169 5.06475 18.1352 4.90137 17.9718 4.90137H16.1746C16.093 4.90137 15.9296 4.98306 15.9296 5.14644V6.69855H14.3775C14.2958 6.69855 14.1324 6.78024 14.1324 6.94362V8.7408C14.1324 8.82249 14.2141 8.98587 14.3775 8.98587H15.9296V10.538C15.9296 10.6197 16.0113 10.7831 16.1746 10.7831H17.9718C18.0535 10.7831 18.2169 10.7014 18.2169 10.538V8.98587H19.769C19.8507 8.98587 20.0141 8.90418 20.0141 8.7408V6.86193C20.0141 6.78024 19.9324 6.69855 19.769 6.69855ZM6.12676 9.39432H1.22535C0.980282 9.39432 0.816901 9.5577 0.816901 9.80278V28.5915C0.816901 28.8366 0.980282 29 1.22535 29H6.12676C6.37183 29 6.53521 28.8366 6.53521 28.5915V22.4647H3.26761C3.02254 22.4647 2.85916 22.3014 2.85916 22.0563V19.6056C2.85916 19.3605 3.02254 19.1971 3.26761 19.1971H6.53521V15.9295H3.26761C3.02254 15.9295 2.85916 15.7662 2.85916 15.5211V13.0704C2.85916 12.8253 3.02254 12.6619 3.26761 12.6619H6.53521V9.80278C6.53521 9.5577 6.37183 9.39432 6.12676 9.39432ZM33.0845 4.90137H27.7746V7.35207H33.0845C33.738 7.35207 34.3099 6.78024 34.3099 6.12672C34.3099 5.4732 33.738 4.90137 33.0845 4.90137ZM33.0845 9.39432H28.1831C27.938 9.39432 27.7746 9.5577 27.7746 9.80278V12.6619H31.0423C31.2873 12.6619 31.4507 12.8253 31.4507 13.0704V15.5211C31.4507 15.7662 31.2873 15.9295 31.0423 15.9295H27.7746V19.1971H31.0423C31.2873 19.1971 31.4507 19.3605 31.4507 19.6056V22.0563C31.4507 22.3014 31.2873 22.4647 31.0423 22.4647H27.7746V28.5915C27.7746 28.8366 27.938 29 28.1831 29H33.0845C33.3296 29 33.493 28.8366 33.493 28.5915V9.80278C33.493 9.5577 33.3296 9.39432 33.0845 9.39432Z" fill="#163E7A"/>
</svg>
