<svg width="28" height="28" viewBox="0 0 28 28" fill="none" xmlns="http://www.w3.org/2000/svg">
<path d="M13.9599 15.404C18.212 15.404 21.6619 11.9542 21.6619 7.70201C21.6619 3.44986 18.212 0 13.9599 0C9.70774 0 6.25788 3.44986 6.25788 7.70201C6.25788 11.9542 9.70774 15.404 13.9599 15.404ZM21.6619 17.7307H18.9341C18.2923 17.7307 17.7307 18.0516 17.4097 18.533L15.4842 21.2607C14.7622 22.3037 13.1576 22.3037 12.4355 21.2607L10.5903 18.533C10.2693 18.0516 9.62751 17.7307 9.0659 17.7307H6.25788C2.80802 17.7307 0 20.5387 0 24.0688V26.8768C0 27.3582 0.401146 27.8395 0.962751 27.8395H27.0372C27.5186 27.8395 28 27.4384 28 26.8768V24.0688C27.9198 20.5387 25.1117 17.7307 21.6619 17.7307ZM24.7106 23.8281C24.7106 24.0688 24.5501 24.2292 24.3095 24.2292H22.8653V25.6734C22.8653 25.914 22.7049 26.0745 22.4642 26.0745H21.2607C21.0201 26.0745 20.8596 25.914 20.8596 25.6734V24.2292H19.4155C19.1748 24.2292 19.0143 24.0688 19.0143 23.8281V22.6246C19.0143 22.384 19.1748 22.2235 19.4155 22.2235H20.8596V20.7794C20.8596 20.5387 21.0201 20.3782 21.2607 20.3782H22.4642C22.7049 20.3782 22.8653 20.5387 22.8653 20.7794V22.2235H24.3095C24.5501 22.2235 24.7106 22.384 24.7106 22.6246V23.8281Z" fill="#315488"/>
<path d="M14.9228 17.6504H13.3182C12.7566 17.6504 12.3555 18.1318 12.3555 18.6934C12.3555 19.255 12.8368 19.7364 13.3182 19.7364H14.9228C15.4844 19.7364 15.9658 19.255 15.9658 18.6934C15.8856 18.0515 15.4042 17.6504 14.9228 17.6504Z" fill="#315488"/>
</svg>
