<svg width="28" height="30" viewBox="0 0 28 30" fill="none" xmlns="http://www.w3.org/2000/svg">
<path d="M26.9372 26.7557C23.7462 26.7557 20.2212 26.7557 19.2267 26.7557V24.8891H26.3241C25.728 23.0744 25.2015 21.4714 25.2 21.4668C24.6049 21.4668 22.5193 21.4668 19.8445 21.4668C18.2371 23.0005 16.751 24.4108 15.4197 26.2358L13.9999 28.182L12.5803 26.2357C11.2369 24.3942 9.71847 22.959 8.15577 21.4668C5.06493 21.4668 2.80276 21.4668 2.80001 21.4668C2.79076 21.4951 2.26749 23.088 1.67593 24.8891H8.77334V26.7557C7.40324 26.7557 3.94407 26.7557 1.06275 26.7557C0.499598 28.47 0.013824 29.949 0 29.9912H28C27.9864 29.9497 27.5005 28.4704 26.9372 26.7557Z" fill="#315488"/>
<path d="M14.0001 25.2C18.236 19.3934 24.2668 17.1531 24.2668 10.2666C24.2668 4.38357 19.8832 0 14.0001 0C8.1189 0 3.7334 4.38357 3.7334 10.2667C3.7334 17.1522 9.76607 19.3953 14.0001 25.2ZM14.0001 7.85246C15.5425 7.85246 16.8001 9.10998 16.8001 10.6525C16.8001 12.1943 15.5425 13.4525 14.0001 13.4525C12.4575 13.4525 11.2001 12.1943 11.2001 10.6525C11.2001 9.10998 12.4575 7.85246 14.0001 7.85246Z" fill="#315488"/>
</svg>
