<svg width="26" height="37" viewBox="0 0 26 37" fill="none" xmlns="http://www.w3.org/2000/svg">
<path d="M23.1111 13.6262C23.1111 13.5309 23.1111 13.4356 23.1111 13.3403C23.1111 12.7686 22.9185 12.2921 22.7259 11.8157L23.7852 10.7675C24.2667 10.2911 24.4593 9.71937 24.363 9.05236L24.0741 7.43246C23.8815 6.76544 24.0741 6.19372 24.5556 5.71728L25.4222 4.85969C26.1926 4.09738 26.1926 2.95393 25.4222 2.19162L23.7852 0.571728C23.0148 -0.190576 21.8593 -0.190576 21.0889 0.571728L20.2222 1.42932C19.7407 1.90576 19.163 2.09633 18.4889 2.00105L16.8519 1.71518C16.2741 1.6199 15.6 1.81047 15.1185 2.28691L6.54815 10.7675C5.77778 11.5298 5.77778 12.6733 6.54815 13.4356L12.5185 19.3435C13.2889 20.1058 14.4444 20.1058 15.2148 19.3435L18.6815 15.9131C19.163 16.199 19.6444 16.2942 20.2222 16.2942C20.6074 16.2942 20.9926 16.199 21.3778 16.1037C22.437 17.3424 23.1111 18.867 23.1111 20.5822V21.5351C23.1111 25.4419 19.6444 28.6817 15.3111 28.6817H1.44444C0.674074 28.5864 0 29.1581 0 30.0157C0 30.8733 0.674074 31.445 1.44444 31.445H6.54815C5.48889 32.4932 4.81482 34.0178 4.81482 35.733V36.0188C4.81482 36.3047 5.00741 36.4953 5.2963 36.4953H19.7407C20.0296 36.4953 20.2222 36.3047 20.2222 36.0188V35.733C20.2222 33.9225 19.3556 32.2073 18.1037 31.0639C22.6296 29.9204 26 26.0136 26 21.4398V20.4869C26 17.8188 24.8444 15.3414 23.1111 13.6262Z" fill="#315488"/>
<path d="M6.3553 20.8681C7.12567 21.6304 8.28123 21.6304 9.0516 20.8681L9.53308 20.3917C9.72567 20.2011 9.72567 19.9152 9.53308 19.7246L5.77752 16.0084C5.58493 15.8178 5.29604 15.8178 5.10345 16.0084L4.62197 16.4849C3.8516 17.2472 3.8516 18.3906 4.62197 19.1529L6.3553 20.8681ZM15.4072 23.822H4.81456C4.04419 23.822 3.37012 24.489 3.37012 25.2513C3.37012 26.0136 4.04419 26.6807 4.81456 26.6807H15.4072C16.1775 26.6807 16.8516 26.0136 16.8516 25.2513C16.8516 24.489 16.1775 23.822 15.4072 23.822Z" fill="#315488"/>
</svg>
