<svg width="37" height="35" viewBox="0 0 37 35" fill="none" xmlns="http://www.w3.org/2000/svg">
<path d="M10.6228 17.1457C9.69101 16.2138 8.29327 16.307 7.45462 17.332C6.70916 18.1707 6.89553 19.4752 7.73417 20.3139L10.0637 22.6434C10.5297 23.1094 10.5297 23.8548 10.0637 24.3207C9.59783 24.7866 8.85237 24.7866 8.38645 24.3207L6.05688 21.9912C5.21824 21.1525 4.65914 20.0343 4.65914 18.7298V13.1388C4.65914 11.7411 3.44776 10.716 2.05002 10.8092C0.838645 10.9956 0 12.1138 0 13.3252V19.1025C0 20.4071 0.465914 21.7116 1.30456 22.7366L6.5228 28.8867C6.61598 28.9799 6.70916 29.0731 6.89553 29.0731H16.4934C16.7729 29.0731 16.9593 28.8867 16.9593 28.6071V25.8117C16.9593 24.3207 16.4002 22.923 15.282 21.898L10.6228 17.1457ZM34.9436 10.9024C33.5458 10.8092 32.3344 11.8342 32.3344 13.232V18.8229C32.2412 20.0343 31.7753 21.2457 30.9367 22.0843L28.6071 24.4139C28.1412 24.8798 27.3957 24.8798 26.9298 24.4139C26.4639 23.948 26.4639 23.2025 26.9298 22.7366L29.2594 20.4071C30.098 19.5684 30.1912 18.357 29.5389 17.4252C28.7003 16.4002 27.2094 16.4002 26.3707 17.2388L21.7116 21.898C20.6866 22.923 20.0343 24.4139 20.0343 25.8117V28.6071C20.0343 28.8867 20.2207 29.0731 20.5002 29.0731H30.098C30.1912 29.0731 30.3776 28.9799 30.4708 28.8867L35.689 22.7366C36.5277 21.7116 36.9936 20.4071 36.9936 19.1025V13.3252C37.0868 12.1138 36.1549 10.9956 34.9436 10.9024Z" fill="#315488"/>
<path d="M10.9954 10.0637H15.0023V14.0706C15.0023 14.3502 15.1886 14.5365 15.4682 14.5365H20.1273C20.4069 14.5365 20.5932 14.3502 20.5932 14.0706V10.0637H24.6001C24.8796 10.0637 25.066 9.87738 25.066 9.59783V4.93869C25.066 4.65914 24.8796 4.47277 24.6001 4.47277H20.5932V0.465914C20.5932 0.186366 20.4069 0 20.1273 0H15.4682C15.1886 0 15.0023 0.186366 15.0023 0.465914V4.47277H10.9954C10.7158 4.47277 10.5295 4.65914 10.5295 4.93869V9.59783C10.5295 9.87738 10.7158 10.0637 10.9954 10.0637ZM16.7727 31.589H7.1749C6.89535 31.589 6.70898 31.7753 6.70898 32.0549V33.9185C6.70898 34.1981 6.89535 34.3845 7.1749 34.3845H16.7727C17.0523 34.3845 17.2386 34.1981 17.2386 33.9185V32.0549C17.2386 31.7753 16.9591 31.589 16.7727 31.589ZM29.9115 31.589H20.3137C20.0341 31.589 19.8478 31.7753 19.8478 32.0549V33.9185C19.8478 34.1981 20.0341 34.3845 20.3137 34.3845H29.9115C30.191 34.3845 30.3774 34.1981 30.3774 33.9185V32.0549C30.3774 31.7753 30.191 31.589 29.9115 31.589Z" fill="#315488"/>
</svg>
