<svg width="29" height="28" viewBox="0 0 29 28" fill="none" xmlns="http://www.w3.org/2000/svg">
<path d="M19.0788 0H9.92091C8.47091 0 7.32617 1.14474 7.32617 2.59474V4.50263H9.92091V2.59474H19.0788V4.50263H21.6735V2.59474C21.6735 1.14474 20.5288 0 19.0788 0Z" fill="#315488"/>
<path d="M25.9474 6.41052H3.05263C1.37368 6.41052 0 7.78421 0 9.46315V23.9632C0 25.6421 1.37368 27.0158 3.05263 27.0158H25.9474C27.6263 27.0158 29 25.6421 29 23.9632V9.46315C29 7.78421 27.6263 6.41052 25.9474 6.41052ZM19.3079 18.1632C19.3079 18.3921 19.1553 18.5447 18.9263 18.5447H16.4079V21.0632C16.4079 21.2921 16.2553 21.4447 16.0263 21.4447H13.1263C12.8974 21.4447 12.7447 21.2921 12.7447 21.0632V18.5447H10.2263C9.99737 18.5447 9.84474 18.3921 9.84474 18.1632V15.2632C9.84474 15.0342 9.99737 14.8816 10.2263 14.8816H12.7447V12.3632C12.7447 12.1342 12.8974 11.9816 13.1263 11.9816H16.0263C16.2553 11.9816 16.4079 12.1342 16.4079 12.3632V14.8816H18.9263C19.1553 14.8816 19.3079 15.0342 19.3079 15.2632V18.1632Z" fill="#315488"/>
</svg>
