<svg width="16" height="16" viewBox="0 0 16 16" fill="none" xmlns="http://www.w3.org/2000/svg">
<path d="M8 0C12.4183 0 16 3.58172 16 8C16 12.4183 12.4183 16 8 16C3.58172 16 0 12.4183 0 8C0.00468731 3.5837 3.58367 0.00472099 8 0ZM8 14.8572C11.7871 14.8572 14.8572 11.7871 14.8572 8C14.8572 4.2129 11.7871 1.14285 8 1.14285C4.2129 1.14285 1.14285 4.2129 1.14285 8C1.14693 11.7854 4.21457 14.8531 8 14.8572Z" fill="#93AFDA"/>
<path d="M7.99971 2.85718C8.31532 2.85718 8.57115 3.11302 8.57115 3.42862V7.42864H12.5711C12.8867 7.42864 13.1426 7.68447 13.1426 8.00008C13.1426 8.31568 12.8867 8.57148 12.5711 8.57148H7.99971C7.68411 8.57148 7.42827 8.31565 7.42827 8.00004V3.42862C7.42827 3.11302 7.68411 2.85718 7.99971 2.85718Z" fill="#93AFDA"/>
</svg>
