<svg width="249" height="74" viewBox="0 0 249 74" fill="none" xmlns="http://www.w3.org/2000/svg">
<path d="M90.5825 21.9825C92.9881 19.3375 95.4524 16.3399 97.9753 12.8721C98.5034 12.9896 99.0901 12.9896 99.7942 12.9896C100.44 12.9896 101.026 12.9896 101.554 12.8721C99.0901 15.4582 96.5085 18.2208 93.8682 21.1596L102.024 32.7386C101.026 32.6799 100.088 32.6211 99.2661 32.6211C98.4447 32.6211 97.5059 32.6799 96.4498 32.7386C94.5722 29.741 92.5774 26.7434 90.5825 23.8633V28.4479C90.5825 29.7998 90.6411 31.2692 90.8172 32.7386C89.8784 32.6799 89.057 32.6211 88.3529 32.6211C87.6488 32.6211 86.8274 32.6799 85.9473 32.7386C86.182 30.27 86.2406 26.9197 86.2406 22.8641C86.2406 18.8673 86.182 15.517 85.9473 12.8721C86.71 12.9896 87.5314 13.0484 88.3529 13.0484C89.1743 13.0484 89.9957 12.9896 90.8172 12.8721C90.6411 14.5766 90.5825 16.1636 90.5825 17.5742V21.9825Z" fill="#333347"/>
<path d="M113.23 24.9802C112.409 22.6291 111.529 20.4544 110.59 18.3384C109.827 19.9254 108.947 22.1589 107.891 24.9802L105.075 32.7388C104.723 32.7388 104.253 32.68 103.843 32.68C103.432 32.68 102.963 32.7388 102.435 32.7388C105.251 26.5672 107.95 19.8079 110.531 12.5195C110.942 12.5783 111.353 12.5783 111.705 12.5783C112.116 12.5783 112.468 12.5783 112.761 12.5195C115.108 18.985 117.748 25.6855 120.858 32.7388C120.095 32.68 119.274 32.68 118.335 32.68C117.455 32.68 116.575 32.68 115.812 32.7388C115.401 31.4457 114.521 28.8595 113.23 24.9802Z" fill="#333347"/>
<path d="M137.521 19.6902C136.406 20.9245 134.529 22.9229 131.947 25.6854C130.246 27.625 128.955 29.0357 128.133 29.9761C127.664 30.5639 126.901 31.5043 125.845 32.7386H124.144C124.32 30.3288 124.437 27.0373 124.437 22.8641C124.437 18.5734 124.32 15.2231 124.144 12.8721C124.965 12.9896 125.845 13.0484 126.667 13.0484C127.488 13.0484 128.309 12.9896 129.131 12.8721C128.955 15.2819 128.837 18.5734 128.837 22.8641C128.837 24.216 128.837 25.274 128.837 25.9793C131.654 23.4519 134.763 20.1016 138.225 15.9285C139.281 14.6354 140.103 13.6362 140.572 12.8721H142.274C142.039 15.2819 141.98 18.5734 141.98 22.8641C141.98 27.1548 142.039 30.4463 142.274 32.7386C141.335 32.6799 140.513 32.6211 139.751 32.6211C139.047 32.6211 138.167 32.6799 137.228 32.7386C137.462 30.3288 137.58 27.0373 137.58 22.8641C137.58 21.3947 137.58 20.3367 137.521 19.6902Z" fill="#333347"/>
<path d="M147.965 32.7386C148.2 30.27 148.317 26.9197 148.317 22.8641C148.317 18.8673 148.2 15.517 147.965 12.8721C148.786 12.9896 149.549 13.0484 150.37 13.0484C151.192 13.0484 152.013 12.9896 152.835 12.8721C152.659 14.5766 152.6 16.1636 152.6 17.5742V20.9833C154.536 21.042 156.003 21.1008 156.942 21.1008C157.939 21.1008 159.347 21.042 161.284 20.9833V17.5742C161.284 16.1636 161.225 14.5766 161.049 12.8721C161.87 12.9896 162.692 13.0484 163.513 13.0484C164.335 13.0484 165.156 12.9896 165.978 12.8721C165.743 15.517 165.626 18.8673 165.626 22.8641C165.626 26.9197 165.743 30.27 165.978 32.7386C165.039 32.6799 164.217 32.6211 163.513 32.6211C162.809 32.6211 161.988 32.6799 161.049 32.7386C161.225 31.2692 161.284 29.7998 161.284 28.4479V23.158C159.876 23.0992 158.409 23.0405 156.942 23.0405C155.475 23.0405 154.067 23.0992 152.6 23.158V28.4479C152.6 29.7998 152.659 31.2692 152.835 32.7386C151.896 32.6799 151.075 32.6211 150.37 32.6211C149.666 32.6211 148.845 32.6799 147.965 32.7386Z" fill="#333347"/>
<path d="M185.164 19.6902C184.049 20.9245 182.171 22.9229 179.59 25.6854C177.888 27.625 176.597 29.0357 175.776 29.9761C175.307 30.5639 174.544 31.5043 173.488 32.7386H171.786C171.962 30.3288 172.08 27.0373 172.08 22.8641C172.08 18.5734 171.962 15.2231 171.786 12.8721C172.608 12.9896 173.488 13.0484 174.309 13.0484C175.131 13.0484 175.952 12.9896 176.773 12.8721C176.597 15.2819 176.48 18.5734 176.48 22.8641C176.48 24.216 176.48 25.274 176.48 25.9793C179.296 23.4519 182.406 20.1016 185.868 15.9285C186.924 14.6354 187.745 13.6362 188.215 12.8721H189.916C189.682 15.2819 189.623 18.5734 189.623 22.8641C189.623 27.1548 189.682 30.4463 189.916 32.7386C188.977 32.6799 188.156 32.6211 187.393 32.6211C186.689 32.6211 185.809 32.6799 184.87 32.7386C185.105 30.3288 185.222 27.0373 185.222 22.8641C185.222 21.3947 185.222 20.3367 185.164 19.6902Z" fill="#333347"/>
<path d="M200.243 21.9825C202.648 19.3375 205.171 16.3399 207.635 12.8721C208.164 12.9896 208.809 12.9896 209.454 12.9896C210.1 12.9896 210.686 12.9896 211.215 12.8721C208.75 15.4582 206.169 18.2208 203.528 21.1596L211.684 32.7386C210.686 32.6799 209.748 32.6211 208.926 32.6211C208.105 32.6211 207.166 32.6799 206.11 32.7386C204.232 29.741 202.296 26.7434 200.243 23.8633V28.4479C200.243 29.7998 200.301 31.2692 200.477 32.7386C199.539 32.6799 198.717 32.6211 198.013 32.6211C197.309 32.6211 196.488 32.6799 195.607 32.7386C195.842 30.27 195.959 26.9197 195.959 22.8641C195.959 18.8673 195.842 15.517 195.607 12.8721C196.429 12.9896 197.192 13.0484 198.013 13.0484C198.834 13.0484 199.656 12.9896 200.477 12.8721C200.301 14.5766 200.243 16.1636 200.243 17.5742V21.9825Z" fill="#333347"/>
<path d="M217.61 24.9802C218.783 25.039 219.605 25.039 220.192 25.039C220.778 25.039 221.6 25.039 222.773 24.9802C222.011 22.6879 221.189 20.4544 220.25 18.3384C219.312 20.3956 218.431 22.6291 217.61 24.9802ZM212.095 32.7388C214.911 26.5672 217.61 19.8079 220.25 12.5195C220.602 12.5783 221.013 12.5783 221.365 12.5783C221.776 12.5783 222.128 12.5783 222.421 12.5195C224.768 18.985 227.467 25.6855 230.518 32.7388C229.814 32.68 228.934 32.68 227.995 32.68C227.115 32.68 226.294 32.68 225.531 32.7388C225.062 31.3869 224.416 29.4473 223.595 26.9198C222.832 26.8611 221.717 26.8611 220.192 26.8611C218.666 26.8611 217.551 26.8611 216.789 26.9198C215.909 29.6236 215.204 31.5632 214.735 32.7388C214.383 32.7388 213.972 32.68 213.503 32.68C213.092 32.68 212.623 32.7388 212.095 32.7388Z" fill="#333347"/>
<path d="M94.1611 55.074C93.3397 52.7229 92.4596 50.5481 91.5208 48.4322C90.8168 50.0192 89.878 52.2527 88.8805 55.074L86.0055 62.8325C85.6535 62.8325 85.2428 62.7737 84.7734 62.7737C84.3627 62.7737 83.8933 62.8325 83.3652 62.8325C86.1816 56.6609 88.8805 49.9016 91.5208 42.6133C91.9315 42.6721 92.2836 42.6721 92.6356 42.6721C93.0463 42.6721 93.3984 42.6721 93.6917 42.6133C96.0387 49.0787 98.7377 55.7793 101.789 62.8325C101.085 62.7737 100.204 62.7737 99.2657 62.7737C98.3856 62.7737 97.5642 62.7737 96.8014 62.8325C96.3321 61.5394 95.5106 58.9532 94.1611 55.074Z" fill="#BD1D2E"/>
<path d="M108.007 52.958C108.007 55.6617 108.594 57.7777 109.709 59.3059C110.824 60.8341 112.349 61.5982 114.344 61.5982C116.28 61.5982 117.806 60.8341 118.921 59.3059C120.035 57.7777 120.563 55.6617 120.563 52.958C120.563 50.1955 120.035 48.0207 118.862 46.4926C117.747 44.9644 116.28 44.259 114.344 44.259C112.349 44.259 110.824 45.0231 109.709 46.5513C108.594 48.0795 108.007 50.1955 108.007 52.958ZM103.313 53.2519C103.313 49.9604 104.311 47.3154 106.306 45.4346C108.301 43.5537 111.058 42.6133 114.637 42.6133C118.041 42.6133 120.681 43.4949 122.5 45.317C124.377 47.1391 125.316 49.6665 125.316 52.958C125.316 56.0732 124.319 58.5418 122.324 60.4227C120.329 62.3035 117.63 63.2439 114.344 63.2439C110.765 63.2439 108.066 62.3623 106.188 60.6578C104.252 58.8945 103.313 56.4258 103.313 53.2519Z" fill="#BD1D2E"/>
<path d="M133.883 52.664C135.409 52.664 136.523 52.3113 137.169 51.6648C137.873 50.9595 138.225 49.9015 138.225 48.3145C138.225 45.8459 137.11 44.6116 134.939 44.6116C134.763 44.6116 134.47 44.6116 134.059 44.6703C133.942 45.9047 133.883 46.9626 133.883 47.9031V52.664ZM129.365 62.8324C129.6 60.3638 129.717 57.0135 129.717 52.9579C129.717 48.9611 129.6 45.6108 129.365 42.9658C130.069 43.0834 130.715 43.0834 131.36 43.0834C131.771 43.0834 132.534 43.0834 133.59 43.0246C134.646 43.0246 135.526 42.9658 136.23 42.9658C138.46 42.9658 140.102 43.3773 141.217 44.2589C142.273 45.0818 142.801 46.3749 142.801 48.197C142.801 52.2526 140.161 54.251 134.822 54.251C134.705 54.251 134.587 54.251 134.352 54.251C134.118 54.251 134 54.251 133.883 54.251V58.5417C133.883 58.9531 133.942 60.4225 134.176 62.8324C133.238 62.7736 132.475 62.7148 131.712 62.7148C131.008 62.7148 130.245 62.7736 129.365 62.8324Z" fill="#BD1D2E"/>
<path d="M171.141 62.8324C168.794 62.7148 166.564 62.656 164.569 62.656C160.755 62.656 157.646 62.7148 155.357 62.8324C155.533 60.4225 155.651 57.131 155.651 52.9579C155.651 48.6672 155.533 45.3169 155.357 42.9658C156.179 43.0834 157 43.1422 157.88 43.1422C158.702 43.1422 159.523 43.0834 160.345 42.9658C160.169 45.3757 160.051 48.6672 160.051 52.9579C160.051 56.1906 160.11 58.718 160.227 60.5989C160.931 60.6576 162.34 60.6576 164.51 60.6576C166.623 60.6576 168.031 60.6576 168.735 60.5989C168.852 58.6592 168.911 56.073 168.911 52.9579C168.911 48.6672 168.794 45.3169 168.559 42.9658C169.439 43.0834 170.26 43.1422 171.082 43.1422C171.962 43.1422 172.783 43.0834 173.605 42.9658C173.37 45.3757 173.253 48.6672 173.253 52.9579C173.253 56.1318 173.311 58.6004 173.429 60.4225L175.6 60.305C175.482 61.363 175.424 62.0683 175.424 62.3622C175.424 62.8324 175.482 63.3614 175.6 63.8904H175.189C174.72 63.3614 173.37 63.0087 171.141 62.8324Z" fill="#BD1D2E"/>
<path d="M179.18 62.8324C179.473 60.9515 179.59 57.66 179.59 52.9579V51.4885C179.59 47.668 179.473 44.8467 179.18 42.9658C180.999 43.0834 182.935 43.0834 185.047 43.0834C187.101 43.0834 188.861 43.0834 190.386 42.9658C190.328 43.5536 190.269 43.965 190.269 44.2589C190.269 44.494 190.328 44.9055 190.386 45.4344C187.629 45.2581 185.399 45.1406 183.874 45.1406C183.815 45.7871 183.815 46.7863 183.815 48.0206V51.3709L190.269 51.1946C190.21 51.6648 190.152 52.0762 190.152 52.3701C190.152 52.664 190.21 53.0754 190.269 53.6632C187.277 53.4869 185.106 53.3693 183.815 53.3693V56.8959C183.815 58.8356 183.815 60.1286 183.874 60.7752C185.692 60.7164 187.805 60.5401 190.386 60.305C190.328 60.7164 190.328 61.0691 190.328 61.4805C190.328 61.7744 190.386 62.2446 190.445 62.8324C186.925 62.7736 184.636 62.7148 183.404 62.7148C181.761 62.7148 180.353 62.7736 179.18 62.8324Z" fill="#BD1D2E"/>
<path d="M194.669 62.8324C194.904 60.3638 195.021 57.0135 195.021 52.9579C195.021 48.9611 194.904 45.6108 194.669 42.9658C195.49 43.0834 196.312 43.1422 197.133 43.1422C197.955 43.1422 198.776 43.0834 199.598 42.9658C199.421 44.6703 199.363 46.2573 199.363 47.668V51.077C201.299 51.1358 202.707 51.1946 203.705 51.1946C204.643 51.1946 206.11 51.1358 208.046 51.077V47.668C208.046 46.2573 207.988 44.6703 207.812 42.9658C208.633 43.0834 209.455 43.1422 210.276 43.1422C211.097 43.1422 211.919 43.0834 212.682 42.9658C212.447 45.6108 212.33 48.9611 212.33 52.9579C212.33 57.0135 212.447 60.3638 212.682 62.8324C211.802 62.7736 210.98 62.7148 210.276 62.7148C209.572 62.7148 208.751 62.7736 207.812 62.8324C207.988 61.363 208.046 59.8935 208.046 58.5417V53.2518C206.58 53.193 205.171 53.1342 203.705 53.1342C202.238 53.1342 200.771 53.193 199.363 53.2518V58.5417C199.363 59.8935 199.421 61.363 199.598 62.8324C198.659 62.7736 197.837 62.7148 197.133 62.7148C196.429 62.7148 195.608 62.7736 194.669 62.8324Z" fill="#BD1D2E"/>
<path d="M221.717 62.8324C221.952 60.0111 222.069 56.6608 222.069 52.9579C222.069 51.4885 222.01 48.9023 221.952 45.1993H221.306C219.546 45.1993 217.903 45.3169 216.437 45.552C216.495 45.023 216.495 44.6116 216.495 44.2001C216.495 43.7299 216.495 43.3773 216.437 42.9658C219.429 43.1422 222.01 43.2009 224.123 43.2009C226.294 43.2009 228.875 43.1422 231.868 42.9658C231.809 43.3773 231.75 43.7299 231.75 44.2001C231.75 44.6116 231.809 45.023 231.868 45.552C230.342 45.3169 228.699 45.1993 226.939 45.1993H226.352C226.294 46.61 226.235 48.6672 226.235 51.4297C226.235 56.6608 226.352 60.4813 226.587 62.8324C225.648 62.7736 224.827 62.7148 224.064 62.7148C223.36 62.7148 222.597 62.7736 221.717 62.8324Z" fill="#BD1D2E"/>
<path d="M240.024 52.664C241.608 52.664 242.723 52.3113 243.368 51.6648C244.072 50.9595 244.424 49.9015 244.424 48.3145C244.424 45.8459 243.309 44.6116 241.138 44.6116C240.962 44.6116 240.669 44.6116 240.258 44.6703C240.141 45.9047 240.024 46.9626 240.024 47.9031V52.664ZM235.564 62.8324C235.799 60.3638 235.916 57.0135 235.916 52.9579C235.916 48.9611 235.799 45.6108 235.564 42.9658C236.269 43.0834 236.914 43.0834 237.559 43.0834C237.97 43.0834 238.733 43.0834 239.789 43.0246C240.845 43.0246 241.725 42.9658 242.429 42.9658C244.659 42.9658 246.302 43.3773 247.358 44.2589C248.473 45.0818 249.001 46.3749 249.001 48.197C249.001 52.2526 246.302 54.251 241.021 54.251C240.904 54.251 240.728 54.251 240.552 54.251C240.317 54.251 240.141 54.251 240.024 54.251V58.5417C240.024 58.9531 240.141 60.4225 240.376 62.8324C239.437 62.7736 238.615 62.7148 237.911 62.7148C237.207 62.7148 236.445 62.7736 235.564 62.8324Z" fill="#BD1D2E"/>
<path d="M45.0521 51.7824L57.6082 59.1882C59.1337 60.0699 61.1286 59.5409 62.0087 58.0127L66.5852 50.2542C66.9959 49.5488 67.1133 48.6672 66.8786 47.8443C66.7025 46.9627 66.1745 46.2573 65.4117 45.8459L52.8556 38.44C52.3862 38.2049 52.0929 37.6759 52.0929 37.1469C52.0929 36.5592 52.3862 36.089 52.8556 35.7951L65.5291 28.5655C66.2918 28.1541 66.8199 27.4488 67.0546 26.6259C67.2893 25.803 67.1719 24.9214 66.7612 24.1573L62.302 16.34C61.4219 14.8118 59.4857 14.2828 57.9015 15.1644L45.2281 22.3352C44.7587 22.6291 44.172 22.6291 43.7026 22.3352C43.2332 22.0413 42.9398 21.5711 42.9398 20.9833L43.0572 6.40667C43.0572 4.64337 41.649 3.17395 39.8301 3.17395L30.8531 3.11517C29.0929 3.05639 27.6261 4.52581 27.6261 6.28912L27.5087 20.8658C27.5087 21.4535 27.2154 21.9237 26.746 22.2176C26.2766 22.5115 25.6899 22.5115 25.2205 22.2176L12.6644 14.8118C11.9016 14.4003 11.0215 14.2828 10.2001 14.5179C9.37866 14.6942 8.67458 15.2232 8.2052 15.9873L3.68735 23.7458C3.27663 24.4512 3.15929 25.3328 3.33531 26.1557C3.57 27.0373 4.09806 27.7427 4.86081 28.1541L17.4169 35.56C17.8863 35.7951 18.1797 36.3241 18.1797 36.8531C18.1797 37.4408 17.8863 37.911 17.3582 38.2049L4.74347 45.4345C3.15929 46.3161 2.63123 48.2558 3.51133 49.8427L7.91183 57.66C8.38122 58.3654 9.0853 58.8944 9.90672 59.1295C10.7282 59.3646 11.6083 59.247 12.3123 58.8356L24.9858 51.6648C25.4552 51.3709 26.0419 51.3709 26.57 51.6648C27.0393 51.9587 27.3327 52.4289 27.274 53.0167L27.2154 67.5933C27.1567 69.3566 28.6235 70.826 30.3837 70.826L39.3608 70.8848C41.1796 70.8848 42.5878 69.4742 42.6465 67.7109L42.7051 53.0755C42.7051 52.5465 42.9985 52.0175 43.5266 51.7824C43.7613 51.6648 43.996 51.5473 44.2893 51.5473C44.524 51.5473 44.8174 51.6648 45.0521 51.7824ZM24.1057 67.5346L24.223 55.6616L13.8378 61.5393C12.371 62.3622 10.6695 62.5973 9.0853 62.1271C7.44244 61.6569 6.09296 60.5989 5.27153 59.1295L0.812352 51.3709C-0.889175 48.3145 0.166945 44.4353 3.21796 42.7307L13.5445 36.8531L3.27663 30.799C1.8098 29.9762 0.812352 28.5655 0.401639 26.9786C-0.0677482 25.3328 0.166945 23.6283 1.04705 22.1589L5.5649 14.4003C6.445 12.9897 7.79448 11.9317 9.43734 11.5203C11.0802 11.05 12.7817 11.2851 14.1899 12.1668L24.4577 18.2208L24.5751 6.28912C24.5751 2.82129 27.4501 0 30.9118 0L39.8888 0.0587768C43.3505 0.117554 46.1669 2.93884 46.1082 6.40667L46.0495 18.3384L56.376 12.4607C59.427 10.7562 63.2995 11.8141 65.001 14.8118L69.4015 22.6291C70.2229 24.0985 70.4576 25.803 69.9883 27.4488C69.5775 29.0945 68.5214 30.4464 67.0546 31.2693L56.7281 37.1469L66.9372 43.201C69.9883 44.9643 70.9857 48.8435 69.2255 51.8411L64.649 59.5997C62.8888 62.5973 59.0163 63.5965 56.024 61.8332L45.7562 55.7792L45.6975 67.7109C45.6975 71.1787 42.8225 74 39.3608 74L30.3837 73.9412C26.922 73.8824 24.1057 71.0612 24.1057 67.5346Z" fill="#BC1E2E"/>
<path d="M30.7936 24.98C30.735 27.3311 32.7885 29.2707 35.2528 29.0944C37.3651 28.9181 38.9492 26.9784 39.0079 24.8037L39.0666 10.0507C39.1253 7.93474 37.5411 5.93633 35.4288 5.70123C32.9645 5.46612 30.911 7.40575 30.911 9.8156L30.7936 24.98ZM31.8498 46.1984L31.7324 64.6544C31.6737 66.4177 33.3166 67.8283 35.1355 67.5344C36.5436 67.2405 37.4824 65.9475 37.4824 64.5368L37.5997 46.3748C37.5997 44.9641 36.7196 43.6123 35.3115 43.3772C33.4926 43.0245 31.8498 44.3764 31.8498 46.1984ZM9.43653 52.5463C10.434 53.428 11.9595 53.4868 13.1329 52.8402L29.2095 43.671C30.9697 42.6718 31.3217 40.2032 29.7375 38.7338C28.7401 37.7934 27.2146 37.7346 26.0998 38.4399L9.96459 47.5503C8.26306 48.5495 7.85235 51.0181 9.43653 52.5463ZM28.9748 32.6798C29.5028 31.1516 28.7401 29.5058 27.3906 28.683L12.8983 20.1603C11.1381 19.1023 8.73245 19.9252 8.02837 21.9824C7.50031 23.5106 8.26306 25.2151 9.67122 26.038L24.1049 34.5019C25.8651 35.5598 28.2707 34.737 28.9748 32.6798ZM61.4798 22.3938C61.0691 21.6885 60.189 21.3946 59.4262 21.8061L41.8829 31.7981C41.1788 32.2096 40.9441 33.15 41.2962 33.8553C41.7069 34.5606 42.6457 34.8545 43.3497 34.4431L60.9518 24.451C61.6558 24.0396 61.8905 23.0992 61.4798 22.3938ZM40.4161 41.32C40.2987 42.3192 40.8268 43.2596 41.7069 43.7886L57.4313 53.0166C58.8395 53.8394 60.7757 53.0753 61.0104 51.2533C61.1864 50.254 60.5997 49.3136 59.7783 48.7846L44.0538 39.5567C42.6457 38.7338 40.7094 39.4979 40.4161 41.32Z" fill="#BC1E2E"/>
</svg>
