<svg width="11" height="15" viewBox="0 0 11 15" fill="none" xmlns="http://www.w3.org/2000/svg">
<path d="M5.57031 1C3.05024 1 1 3.05024 1 5.57031C1 6.42176 1.23585 7.2527 1.68222 7.97359L5.31016 13.82C5.37965 13.932 5.50209 14 5.63376 14C5.63478 14 5.63577 14 5.63679 14C5.7696 13.999 5.89229 13.9288 5.96052 13.8149L9.49598 7.91184C9.91772 7.20618 10.1406 6.3965 10.1406 5.57031C10.1406 3.05024 8.09038 1 5.57031 1ZM8.8423 7.52077L5.628 12.8875L2.32963 7.57226C1.95809 6.97223 1.75664 6.27998 1.75664 5.57031C1.75664 3.47025 3.47025 1.75664 5.57031 1.75664C7.67037 1.75664 9.38145 3.47025 9.38145 5.57031C9.38145 6.25893 9.19328 6.93348 8.8423 7.52077Z" fill="black" stroke="#122137" stroke-width="0.5"/>
<path d="M5.57031 3.28516C4.31028 3.28516 3.28516 4.31028 3.28516 5.57031C3.28516 6.8223 4.2936 7.85547 5.57031 7.85547C6.86277 7.85547 7.85547 6.80854 7.85547 5.57031C7.85547 4.31028 6.83035 3.28516 5.57031 3.28516ZM5.57031 7.09883C4.7259 7.09883 4.0418 6.41244 4.0418 5.57031C4.0418 4.73029 4.73029 4.0418 5.57031 4.0418C6.41034 4.0418 7.09629 4.73029 7.09629 5.57031C7.09629 6.40015 6.42811 7.09883 5.57031 7.09883Z" fill="black" stroke="#122137" stroke-width="0.5"/>
</svg>
