<svg width="18" height="19" viewBox="0 0 18 19" fill="none" xmlns="http://www.w3.org/2000/svg">
<path d="M17.4045 17.3296L12.3921 12.1007C13.3428 10.8764 13.915 9.31978 13.915 7.62503C13.915 3.69631 10.851 0.5 7.08494 0.5C3.31885 0.5 0.254883 3.69631 0.254883 7.62503C0.254883 11.5537 3.31888 14.7501 7.08498 14.7501C8.70957 14.7501 10.2017 14.153 11.3754 13.1613L16.3879 18.3902C16.5283 18.5366 16.7558 18.5366 16.8963 18.3902L17.4045 17.86C17.5449 17.7135 17.5449 17.476 17.4045 17.3296ZM7.08498 13.25C4.11157 13.25 1.69281 10.7268 1.69281 7.62503C1.69281 4.52322 4.11157 2.00002 7.08498 2.00002C10.0584 2.00002 12.4771 4.52322 12.4771 7.62503C12.4771 10.7268 10.0584 13.25 7.08498 13.25Z" fill="#315488"/>
</svg>
